<?xml version="1.0" encoding="UTF-8"?>
<!DOCTYPE svg PUBLIC "-//W3C//DTD SVG 1.1//EN" "http://www.w3.org/Graphics/SVG/1.1/DTD/svg11.dtd">
<svg xmlns="http://www.w3.org/2000/svg" version="1.1" width="659px" height="197px" style="shape-rendering:geometricPrecision; text-rendering:geometricPrecision; image-rendering:optimizeQuality; fill-rule:evenodd; clip-rule:evenodd" xmlns:xlink="http://www.w3.org/1999/xlink">
<g><path style="opacity:1" fill="#1f427e" d="M -0.5,-0.5 C 91.5,-0.5 183.5,-0.5 275.5,-0.5C 275.5,-0.166667 275.5,0.166667 275.5,0.5C 188.166,0.333336 100.833,0.500002 13.5,1C 8.42678,2.40561 4.92678,5.57227 3,10.5C 2.0119,69.2245 2.34523,127.891 4,186.5C 6.12409,190.313 9.29076,192.813 13.5,194C 135.833,194.5 258.166,194.667 380.5,194.5C 380.167,195.167 379.833,195.833 379.5,196.5C 252.833,196.5 126.167,196.5 -0.5,196.5C -0.5,130.833 -0.5,65.1667 -0.5,-0.5 Z"/></g>
<g><path style="opacity:1" fill="#2d4e86" d="M 275.5,0.5 C 275.5,0.166667 275.5,-0.166667 275.5,-0.5C 403.167,-0.5 530.833,-0.5 658.5,-0.5C 658.5,65.1667 658.5,130.833 658.5,196.5C 565.5,196.5 472.5,196.5 379.5,196.5C 379.833,195.833 380.167,195.167 380.5,194.5C 467.834,194.667 555.167,194.5 642.5,194C 648.588,192.91 652.421,189.41 654,183.5C 654.992,125.084 654.658,66.7509 653,8.5C 650.688,4.41951 647.188,1.91951 642.5,1C 520.167,0.500001 397.834,0.333335 275.5,0.5 Z"/></g>
<g><path style="opacity:1" fill="#fdf7f7" d="M 275.5,0.5 C 397.834,0.333335 520.167,0.500001 642.5,1C 647.188,1.91951 650.688,4.41951 653,8.5C 654.658,66.7509 654.992,125.084 654,183.5C 652.421,189.41 648.588,192.91 642.5,194C 555.167,194.5 467.834,194.667 380.5,194.5C 258.166,194.667 135.833,194.5 13.5,194C 9.29076,192.813 6.12409,190.313 4,186.5C 2.34523,127.891 2.0119,69.2245 3,10.5C 4.92678,5.57227 8.42678,2.40561 13.5,1C 100.833,0.500002 188.166,0.333336 275.5,0.5 Z"/></g>
<g><path style="opacity:1" fill="#74db4a" d="M 345.5,30.5 C 353.833,30.5 362.167,30.5 370.5,30.5C 370.66,32.1992 370.494,33.8659 370,35.5C 366.163,44.3504 362.329,53.1838 358.5,62C 360.134,62.4935 361.801,62.6602 363.5,62.5C 356.618,75.9152 348.451,88.5818 339,100.5C 337.977,99.3999 337.477,98.0666 337.5,96.5C 339.503,86.1537 341.503,75.8204 343.5,65.5C 342.167,65.5 340.833,65.5 339.5,65.5C 340.391,53.6133 342.391,41.9467 345.5,30.5 Z"/></g>
<g><path style="opacity:1" fill="#7bdd52" d="M 339.5,37.5 C 341.225,37.8425 341.725,38.8425 341,40.5C 323.023,50.0953 319.023,63.762 329,81.5C 331.039,83.8745 333.372,85.8745 336,87.5C 336.667,88.8333 336.667,90.1667 336,91.5C 323.404,83.6321 318.404,72.2987 321,57.5C 324.291,48.047 330.458,41.3803 339.5,37.5 Z"/></g>
<g><path style="opacity:1" fill="#7ddd55" d="M 368.5,43.5 C 373.877,46.2229 377.377,50.5563 379,56.5C 382.533,73.6017 376.366,85.7684 360.5,93C 356.23,94.0754 351.897,94.5754 347.5,94.5C 347.5,93.5 347.5,92.5 347.5,91.5C 368.632,90.5787 378.132,79.5787 376,58.5C 373.631,53.3369 371.131,48.3369 368.5,43.5 Z"/></g>
<g><path style="opacity:1" fill="#565454" d="M 249.5,46.5 C 240.833,46.5 232.167,46.5 223.5,46.5C 223.5,58.8333 223.5,71.1667 223.5,83.5C 232.5,83.5 241.5,83.5 250.5,83.5C 241.348,84.4936 232.015,84.8269 222.5,84.5C 222.5,71.5 222.5,58.5 222.5,45.5C 231.682,45.1734 240.682,45.5067 249.5,46.5 Z"/></g>
<g><path style="opacity:1" fill="#c8c4c4" d="M 452.5,46.5 C 449.5,46.5 446.5,46.5 443.5,46.5C 443.5,58.8333 443.5,71.1667 443.5,83.5C 445.833,83.5 448.167,83.5 450.5,83.5C 450.833,83.5 451.167,83.5 451.5,83.5C 448.713,84.4767 445.713,84.81 442.5,84.5C 442.5,71.5 442.5,58.5 442.5,45.5C 446.042,45.1872 449.375,45.5206 452.5,46.5 Z"/></g>
<g><path style="opacity:1" fill="#1c1c1c" d="M 32.5,45.5 C 38.8421,45.3338 45.1754,45.5005 51.5,46C 65.0987,51.364 69.2654,60.864 64,74.5C 61.2801,79.5512 57.1135,82.7178 51.5,84C 45.1754,84.4995 38.8421,84.6662 32.5,84.5C 32.5,71.5 32.5,58.5 32.5,45.5 Z"/></g>
<g><path style="opacity:1" fill="#1e1e1e" d="M 82.5,45.5 C 84.5,45.5 86.5,45.5 88.5,45.5C 92.9264,58.3589 97.9264,71.0256 103.5,83.5C 100.572,84.4841 97.5719,84.8174 94.5,84.5C 94.454,78.0477 91.2873,75.381 85,76.5C 82.8333,76.8333 80.6667,77.1667 78.5,77.5C 76.8451,83.7252 72.8451,85.8918 66.5,84C 71.9327,71.2001 77.2661,58.3668 82.5,45.5 Z"/></g>
<g><path style="opacity:1" fill="#202020" d="M 101.5,46.5 C 104.355,45.1968 107.355,45.1968 110.5,46.5C 113.611,53.7223 116.444,61.0556 119,68.5C 121.931,61.2059 124.765,53.8726 127.5,46.5C 130.5,45.1667 133.5,45.1667 136.5,46.5C 131.202,58.8974 126.202,71.3974 121.5,84C 119.741,84.7975 118.074,84.6309 116.5,83.5C 111.669,70.9866 106.669,58.6533 101.5,46.5 Z"/></g>
<g><path style="opacity:1" fill="#202020" d="M 149.5,45.5 C 151.467,45.2606 153.301,45.5939 155,46.5C 159.874,58.9552 165.041,71.2886 170.5,83.5C 163.856,85.9863 159.856,83.8196 158.5,77C 154.167,76.3333 149.833,76.3333 145.5,77C 144.144,83.8196 140.144,85.9863 133.5,83.5C 138.848,70.8075 144.182,58.1409 149.5,45.5 Z"/></g>
<g><path style="opacity:1" fill="#202020" d="M 172.5,45.5 C 175.572,45.1826 178.572,45.5159 181.5,46.5C 185.325,54.8193 189.658,62.8193 194.5,70.5C 199.342,62.8193 203.675,54.8193 207.5,46.5C 210.428,45.5159 213.428,45.1826 216.5,45.5C 216.5,58.5 216.5,71.5 216.5,84.5C 213.833,84.5 211.167,84.5 208.5,84.5C 208.666,77.1591 208.5,69.8258 208,62.5C 204.5,69.5 201,76.5 197.5,83.5C 195.5,84.8333 193.5,84.8333 191.5,83.5C 188,76.5 184.5,69.5 181,62.5C 180.5,69.8258 180.334,77.1591 180.5,84.5C 177.833,84.5 175.167,84.5 172.5,84.5C 172.5,71.5 172.5,58.5 172.5,45.5 Z"/></g>
<g><path style="opacity:1" fill="#1d1d1d" d="M 249.5,46.5 C 249.5,48.5 249.5,50.5 249.5,52.5C 243.5,52.5 237.5,52.5 231.5,52.5C 230.523,55.2869 230.19,58.2869 230.5,61.5C 235.5,61.5 240.5,61.5 245.5,61.5C 245.5,63.5 245.5,65.5 245.5,67.5C 240.5,67.5 235.5,67.5 230.5,67.5C 230.187,71.0419 230.521,74.3752 231.5,77.5C 237.833,77.5 244.167,77.5 250.5,77.5C 250.5,79.5 250.5,81.5 250.5,83.5C 241.5,83.5 232.5,83.5 223.5,83.5C 223.5,71.1667 223.5,58.8333 223.5,46.5C 232.167,46.5 240.833,46.5 249.5,46.5 Z"/></g>
<g><path style="opacity:1" fill="#222222" d="M 256.5,45.5 C 259.572,45.1826 262.572,45.5159 265.5,46.5C 271.195,54.3626 276.695,62.3626 282,70.5C 282.5,62.1733 282.666,53.84 282.5,45.5C 285.167,45.5 287.833,45.5 290.5,45.5C 290.5,58.5 290.5,71.5 290.5,84.5C 287.482,84.6646 284.482,84.498 281.5,84C 276,75.8333 270.5,67.6667 265,59.5C 264.5,67.8267 264.334,76.16 264.5,84.5C 261.833,84.5 259.167,84.5 256.5,84.5C 256.5,71.5 256.5,58.5 256.5,45.5 Z"/></g>
<g><path style="opacity:1" fill="#232323" d="M 436.5,46.5 C 436.5,48.5 436.5,50.5 436.5,52.5C 430.5,52.5 424.5,52.5 418.5,52.5C 417.523,55.2869 417.19,58.2869 417.5,61.5C 422.5,61.5 427.5,61.5 432.5,61.5C 432.5,63.5 432.5,65.5 432.5,67.5C 427.833,67.5 423.167,67.5 418.5,67.5C 418.5,70.8333 418.5,74.1667 418.5,77.5C 424.833,77.5 431.167,77.5 437.5,77.5C 437.5,79.5 437.5,81.5 437.5,83.5C 428.5,83.5 419.5,83.5 410.5,83.5C 410.5,71.1667 410.5,58.8333 410.5,46.5C 419.167,46.5 427.833,46.5 436.5,46.5 Z"/></g>
<g><path style="opacity:1" fill="#252525" d="M 452.5,46.5 C 457.396,54.6135 462.563,62.6135 468,70.5C 468.5,62.5069 468.666,54.5069 468.5,46.5C 471.167,46.5 473.833,46.5 476.5,46.5C 476.5,58.8333 476.5,71.1667 476.5,83.5C 473.482,83.6646 470.482,83.498 467.5,83C 462.614,75.3854 457.614,67.8854 452.5,60.5C 452.013,59.5266 451.513,58.5266 451,57.5C 450.5,66.1603 450.334,74.8269 450.5,83.5C 448.167,83.5 445.833,83.5 443.5,83.5C 443.5,71.1667 443.5,58.8333 443.5,46.5C 446.5,46.5 449.5,46.5 452.5,46.5 Z"/></g>
<g><path style="opacity:1" fill="#252525" d="M 509.5,52.5 C 503.167,52.5 496.833,52.5 490.5,52.5C 490.5,55.5 490.5,58.5 490.5,61.5C 495.5,61.5 500.5,61.5 505.5,61.5C 505.5,63.5 505.5,65.5 505.5,67.5C 500.5,67.5 495.5,67.5 490.5,67.5C 490.5,70.8333 490.5,74.1667 490.5,77.5C 497.167,77.5 503.833,77.5 510.5,77.5C 510.5,79.5 510.5,81.5 510.5,83.5C 501.5,83.5 492.5,83.5 483.5,83.5C 483.5,71.1667 483.5,58.8333 483.5,46.5C 492.167,46.5 500.833,46.5 509.5,46.5C 509.5,48.5 509.5,50.5 509.5,52.5 Z"/></g>
<g><path style="opacity:1" fill="#282828" d="M 515.5,46.5 C 521.509,46.3338 527.509,46.5005 533.5,47C 543.835,51.231 546.335,58.3977 541,68.5C 539.786,70.0488 538.286,71.2155 536.5,72C 539.553,75.3866 542.22,79.0533 544.5,83C 541.5,83.6667 538.5,83.6667 535.5,83C 533.5,80 531.5,77 529.5,74C 527.527,73.5045 525.527,73.3379 523.5,73.5C 522.521,76.6248 522.187,79.9581 522.5,83.5C 520.167,83.5 517.833,83.5 515.5,83.5C 515.5,71.1667 515.5,58.8333 515.5,46.5 Z"/></g>
<g><path style="opacity:1" fill="#2c2c2c" d="M 568.5,68.5 C 568.5,66.5 568.5,64.5 568.5,62.5C 573.833,62.5 579.167,62.5 584.5,62.5C 584.5,69.5 584.5,76.5 584.5,83.5C 582.167,83.5 579.833,83.5 577.5,83.5C 577.649,82.448 577.483,81.448 577,80.5C 563.073,87.7453 553.073,84.0786 547,69.5C 546.224,52.2761 554.391,44.7761 571.5,47C 575.163,47.8449 578.163,49.6783 580.5,52.5C 579.167,54.5 577.5,56.1667 575.5,57.5C 569.791,51.3013 563.791,50.968 557.5,56.5C 552.414,64.9721 554.08,71.8054 562.5,77C 569.355,78.6543 574.022,76.1543 576.5,69.5C 573.914,68.52 571.247,68.1866 568.5,68.5 Z"/></g>
<g><path style="opacity:1" fill="#2d2d2d" d="M 609.5,68.5 C 608.513,73.3054 608.179,78.3054 608.5,83.5C 605.833,83.5 603.167,83.5 600.5,83.5C 600.666,78.1563 600.499,72.8229 600,67.5C 595.167,60.6667 590.333,53.8333 585.5,47C 588.833,46.3333 592.167,46.3333 595.5,47C 598.294,52.0898 601.46,56.9232 605,61.5C 608.042,56.5812 611.209,51.7478 614.5,47C 617.554,46.1786 620.554,46.3452 623.5,47.5C 618.807,54.5178 614.141,61.5178 609.5,68.5 Z"/></g>
<g><path style="opacity:1" fill="#c7c3c3" d="M 436.5,46.5 C 427.833,46.5 419.167,46.5 410.5,46.5C 410.5,58.8333 410.5,71.1667 410.5,83.5C 419.5,83.5 428.5,83.5 437.5,83.5C 428.348,84.4936 419.015,84.8269 409.5,84.5C 409.5,71.5 409.5,58.5 409.5,45.5C 418.682,45.1734 427.682,45.5067 436.5,46.5 Z"/></g>
<g><path style="opacity:1" fill="#faf4f4" d="M 40.5,52.5 C 55.3612,51.8475 60.5279,58.5142 56,72.5C 54.8333,74.3333 53.3333,75.8333 51.5,77C 47.8484,77.4986 44.1817,77.6653 40.5,77.5C 40.5,69.1667 40.5,60.8333 40.5,52.5 Z"/></g>
<g><path style="opacity:1" fill="#fcf6f6" d="M 531.5,53.5 C 534.766,54.1138 536.099,56.1138 535.5,59.5C 535.95,62.9414 534.617,65.2747 531.5,66.5C 528.833,66.5 526.167,66.5 523.5,66.5C 523.5,62.1667 523.5,57.8333 523.5,53.5C 526.167,53.5 528.833,53.5 531.5,53.5 Z"/></g>
<g><path style="opacity:1" fill="#9b9898" d="M 531.5,53.5 C 528.833,53.5 526.167,53.5 523.5,53.5C 523.5,57.8333 523.5,62.1667 523.5,66.5C 526.167,66.5 528.833,66.5 531.5,66.5C 528.713,67.4767 525.713,67.81 522.5,67.5C 522.5,62.5 522.5,57.5 522.5,52.5C 525.713,52.19 528.713,52.5233 531.5,53.5 Z"/></g>
<g><path style="opacity:1" fill="#5b5a5a" d="M 452.5,60.5 C 451.508,67.9818 451.175,75.6484 451.5,83.5C 451.167,83.5 450.833,83.5 450.5,83.5C 450.334,74.8269 450.5,66.1603 451,57.5C 451.513,58.5266 452.013,59.5266 452.5,60.5 Z"/></g>
<g><path style="opacity:1" fill="#dad5d5" d="M 151.5,58.5 C 153.438,62.1254 155.105,65.9587 156.5,70C 153.5,70.6667 150.5,70.6667 147.5,70C 149.135,66.2607 150.469,62.4274 151.5,58.5 Z"/></g>
<g><path style="opacity:1" fill="#615f5f" d="M 231.5,52.5 C 231.5,55.1667 231.5,57.8333 231.5,60.5C 236.5,60.5 241.5,60.5 246.5,60.5C 246.5,62.8333 246.5,65.1667 246.5,67.5C 246.167,67.5 245.833,67.5 245.5,67.5C 245.5,65.5 245.5,63.5 245.5,61.5C 240.5,61.5 235.5,61.5 230.5,61.5C 230.19,58.2869 230.523,55.2869 231.5,52.5 Z"/></g>
<g><path style="opacity:1" fill="#7a7878" d="M 418.5,52.5 C 418.5,55.1667 418.5,57.8333 418.5,60.5C 423.5,60.5 428.5,60.5 433.5,60.5C 433.802,63.0593 433.468,65.3926 432.5,67.5C 432.5,65.5 432.5,63.5 432.5,61.5C 427.5,61.5 422.5,61.5 417.5,61.5C 417.19,58.2869 417.523,55.2869 418.5,52.5 Z"/></g>
<g><path style="opacity:1" fill="#e7e2e2" d="M 88.5,68.5 C 86.3926,69.4682 84.0593,69.8016 81.5,69.5C 83.5029,56.9766 85.8363,56.6433 88.5,68.5 Z"/></g>
<g><path style="opacity:1" fill="#646262" d="M 584.5,83.5 C 584.5,76.5 584.5,69.5 584.5,62.5C 579.167,62.5 573.833,62.5 568.5,62.5C 568.5,64.5 568.5,66.5 568.5,68.5C 567.532,66.3926 567.198,64.0593 567.5,61.5C 573.5,61.5 579.5,61.5 585.5,61.5C 585.825,69.0191 585.492,76.3524 584.5,83.5 Z"/></g>
<g><path style="opacity:1" fill="#9b9797" d="M 515.5,46.5 C 515.5,58.8333 515.5,71.1667 515.5,83.5C 517.833,83.5 520.167,83.5 522.5,83.5C 522.187,79.9581 522.521,76.6248 523.5,73.5C 523.5,77.1667 523.5,80.8333 523.5,84.5C 520.5,84.5 517.5,84.5 514.5,84.5C 514.171,71.6557 514.505,58.989 515.5,46.5 Z"/></g>
<g><path style="opacity:1" fill="#b5b1b1" d="M 245.5,67.5 C 245.833,67.5 246.167,67.5 246.5,67.5C 241.695,68.4872 236.695,68.8205 231.5,68.5C 231.5,71.5 231.5,74.5 231.5,77.5C 230.521,74.3752 230.187,71.0419 230.5,67.5C 235.5,67.5 240.5,67.5 245.5,67.5 Z"/></g>
<g><path style="opacity:1" fill="#b4b0b0" d="M 509.5,52.5 C 503.69,53.4896 497.69,53.8229 491.5,53.5C 491.5,55.8333 491.5,58.1667 491.5,60.5C 496.5,60.5 501.5,60.5 506.5,60.5C 506.5,63.1667 506.5,65.8333 506.5,68.5C 501.5,68.5 496.5,68.5 491.5,68.5C 491.5,71.1667 491.5,73.8333 491.5,76.5C 498.022,76.1765 504.355,76.5098 510.5,77.5C 503.833,77.5 497.167,77.5 490.5,77.5C 490.5,74.1667 490.5,70.8333 490.5,67.5C 495.5,67.5 500.5,67.5 505.5,67.5C 505.5,65.5 505.5,63.5 505.5,61.5C 500.5,61.5 495.5,61.5 490.5,61.5C 490.5,58.5 490.5,55.5 490.5,52.5C 496.833,52.5 503.167,52.5 509.5,52.5 Z"/></g>
<g><path style="opacity:1" fill="#858282" d="M 88.5,68.5 C 89.0431,68.56 89.3764,68.8933 89.5,69.5C 88,69.8333 86.5,70.1667 85,70.5C 82.9331,70.6255 81.7664,70.2922 81.5,69.5C 84.0593,69.8016 86.3926,69.4682 88.5,68.5 Z"/></g>
<g><path style="opacity:1" fill="#b4b0b0" d="M 609.5,68.5 C 609.5,73.8333 609.5,79.1667 609.5,84.5C 606.287,84.81 603.287,84.4767 600.5,83.5C 603.167,83.5 605.833,83.5 608.5,83.5C 608.179,78.3054 608.513,73.3054 609.5,68.5 Z"/></g>
<g><path style="opacity:1" fill="#706e6e" d="M 208.5,145.5 C 207.2,147.223 206.533,149.39 206.5,152C 206.533,154.61 207.2,156.777 208.5,158.5C 207.791,159.404 206.791,159.737 205.5,159.5C 205.5,154.5 205.5,149.5 205.5,144.5C 206.791,144.263 207.791,144.596 208.5,145.5 Z"/></g>
<g><path style="opacity:1" fill="#1b1b1b" d="M 208.5,145.5 C 208.5,149.833 208.5,154.167 208.5,158.5C 207.2,156.777 206.533,154.61 206.5,152C 206.533,149.39 207.2,147.223 208.5,145.5 Z"/></g>
<g><path style="opacity:1" fill="#747171" d="M 230.5,145.5 C 229.2,147.223 228.533,149.39 228.5,152C 228.533,154.61 229.2,156.777 230.5,158.5C 229.791,159.404 228.791,159.737 227.5,159.5C 227.5,154.5 227.5,149.5 227.5,144.5C 228.791,144.263 229.791,144.596 230.5,145.5 Z"/></g>
<g><path style="opacity:1" fill="#1b1c1b" d="M 230.5,145.5 C 230.5,149.833 230.5,154.167 230.5,158.5C 229.2,156.777 228.533,154.61 228.5,152C 228.533,149.39 229.2,147.223 230.5,145.5 Z"/></g>
<g><path style="opacity:1" fill="#454343" d="M 270.5,145.5 C 272.465,145.948 272.798,146.948 271.5,148.5C 269.481,147.867 269.147,146.867 270.5,145.5 Z"/></g>
<g><path style="opacity:1" fill="#2c2b2b" d="M 419.5,145.5 C 420.999,146.678 421.999,148.345 422.5,150.5C 423.107,150.376 423.44,150.043 423.5,149.5C 428.151,150.174 429.651,152.841 428,157.5C 425.281,158.444 422.448,158.777 419.5,158.5C 419.5,154.167 419.5,149.833 419.5,145.5 Z"/></g>
<g><path style="opacity:1" fill="#7b7979" d="M 419.5,145.5 C 420.209,144.596 421.209,144.263 422.5,144.5C 422.216,146.415 422.549,148.081 423.5,149.5C 423.44,150.043 423.107,150.376 422.5,150.5C 421.999,148.345 420.999,146.678 419.5,145.5 Z"/></g>
<g><path style="opacity:1" fill="#646262" d="M 433.5,145.5 C 432.2,147.223 431.533,149.39 431.5,152C 431.533,154.61 432.2,156.777 433.5,158.5C 432.791,159.404 431.791,159.737 430.5,159.5C 430.5,154.5 430.5,149.5 430.5,144.5C 431.791,144.263 432.791,144.596 433.5,145.5 Z"/></g>
<g><path style="opacity:1" fill="#212121" d="M 433.5,145.5 C 433.5,149.833 433.5,154.167 433.5,158.5C 432.2,156.777 431.533,154.61 431.5,152C 431.533,149.39 432.2,147.223 433.5,145.5 Z"/></g>
<g><path style="opacity:1" fill="#393939" d="M 255.5,146.5 C 256.5,146.5 257.5,146.5 258.5,146.5C 258.626,148.2 259.293,149.7 260.5,151C 259.704,152.092 259.037,153.259 258.5,154.5C 259.547,156.056 260.214,157.723 260.5,159.5C 258.549,159.773 257.049,159.107 256,157.5C 254.922,153.771 254.755,150.104 255.5,146.5 Z"/></g>
<g><path style="opacity:1" fill="#282828" d="M 145.5,149.5 C 147.833,149.5 150.167,149.5 152.5,149.5C 152.666,153.514 152.499,157.514 152,161.5C 149.415,164.128 146.915,164.128 144.5,161.5C 146.117,161.331 147.784,160.997 149.5,160.5C 143.43,158.441 142.097,154.774 145.5,149.5 Z"/></g>
<g><path style="opacity:1" fill="#2e2e2e" d="M 164.5,154.5 C 162.076,154.192 159.743,154.526 157.5,155.5C 159.045,156.452 160.712,156.785 162.5,156.5C 163.774,157.189 163.774,158.023 162.5,159C 157.16,159.989 154.66,157.822 155,152.5C 159.259,148.19 162.425,148.857 164.5,154.5 Z"/></g>
<g><path style="opacity:1" fill="#1e1e1e" d="M 174.5,151.5 C 175.01,154.388 174.344,156.721 172.5,158.5C 172.5,156.167 172.5,153.833 172.5,151.5C 171.178,151.33 170.011,151.663 169,152.5C 168.808,154.577 168.308,156.577 167.5,158.5C 166.516,155.572 166.183,152.572 166.5,149.5C 168.857,149.337 171.19,149.503 173.5,150C 174.056,150.383 174.389,150.883 174.5,151.5 Z"/></g>
<g><path style="opacity:1" fill="#2a2a2a" d="M 179.5,149.5 C 183.145,148.68 185.478,150.013 186.5,153.5C 184.5,154.167 182.5,154.833 180.5,155.5C 182.167,156.167 183.833,156.833 185.5,157.5C 183.166,159.987 180.666,159.987 178,157.5C 177.109,154.502 177.609,151.836 179.5,149.5 Z"/></g>
<g><path style="opacity:1" fill="#2a2a2a" d="M 188.5,149.5 C 190.604,149.201 192.604,149.534 194.5,150.5C 193.675,151.386 192.675,151.719 191.5,151.5C 191.5,154.167 191.5,156.833 191.5,159.5C 190.5,159.5 189.5,159.5 188.5,159.5C 188.5,156.167 188.5,152.833 188.5,149.5 Z"/></g>
<g><path style="opacity:1" fill="#242323" d="M 197.5,149.5 C 199.262,149.357 200.929,149.691 202.5,150.5C 203.48,153.086 203.813,155.753 203.5,158.5C 200.833,158.5 198.167,158.5 195.5,158.5C 194.959,154.705 196.625,152.705 200.5,152.5C 199.271,151.719 197.938,151.219 196.5,151C 197.056,150.617 197.389,150.117 197.5,149.5 Z"/></g>
<g><path style="opacity:1" fill="#2e2e2e" d="M 225.5,152.5 C 223.975,154.036 221.975,155.036 219.5,155.5C 221.045,156.452 222.712,156.785 224.5,156.5C 225.773,157.077 225.773,157.743 224.5,158.5C 218.695,159.865 216.195,157.532 217,151.5C 220.258,148.654 223.092,148.987 225.5,152.5 Z"/></g>
<g><path style="opacity:1" fill="#303030" d="M 242.5,154.5 C 240.076,154.192 237.743,154.526 235.5,155.5C 237.045,156.452 238.712,156.785 240.5,156.5C 241.774,157.189 241.774,158.023 240.5,159C 235.16,159.989 232.66,157.822 233,152.5C 237.259,148.19 240.425,148.857 242.5,154.5 Z"/></g>
<g><path style="opacity:1" fill="#2c2b2b" d="M 246.5,149.5 C 248.655,149.372 250.655,149.872 252.5,151C 252,151.5 251.5,152 251,152.5C 247.167,151 246,152.167 247.5,156C 249.256,156.202 250.922,156.702 252.5,157.5C 250.044,160.08 247.544,160.08 245,157.5C 244.109,154.502 244.609,151.836 246.5,149.5 Z"/></g>
<g><path style="opacity:1" fill="#313030" d="M 262.5,149.5 C 264.604,149.201 266.604,149.534 268.5,150.5C 265.772,152.781 264.772,155.781 265.5,159.5C 264.5,159.5 263.5,159.5 262.5,159.5C 262.5,156.167 262.5,152.833 262.5,149.5 Z"/></g>
<g><path style="opacity:1" fill="#817e7e" d="M 270.5,149.5 C 269.945,153.012 270.612,156.012 272.5,158.5C 271.791,159.404 270.791,159.737 269.5,159.5C 269.187,155.958 269.521,152.625 270.5,149.5 Z"/></g>
<g><path style="opacity:1" fill="#1c1d1c" d="M 270.5,149.5 C 272.388,151.988 273.055,154.988 272.5,158.5C 270.612,156.012 269.945,153.012 270.5,149.5 Z"/></g>
<g><path style="opacity:1" fill="#343434" d="M 277.5,149.5 C 279.655,149.372 281.655,149.872 283.5,151C 282.351,152.744 281.017,152.911 279.5,151.5C 277.404,152.62 277.07,154.12 278.5,156C 280.256,156.202 281.922,156.702 283.5,157.5C 280.329,160.335 277.496,160.002 275,156.5C 274.333,155.167 274.333,153.833 275,152.5C 276.045,151.627 276.878,150.627 277.5,149.5 Z"/></g>
<g><path style="opacity:1" fill="#2b2b2b" d="M 287.5,149.5 C 289.722,149.178 291.556,149.845 293,151.5C 293.497,153.81 293.663,156.143 293.5,158.5C 290.894,159.136 288.394,159.136 286,158.5C 284.948,154.707 286.448,152.707 290.5,152.5C 288.922,151.702 287.256,151.202 285.5,151C 286.416,150.722 287.082,150.222 287.5,149.5 Z"/></g>
<g><path style="opacity:1" fill="#383737" d="M 295.5,144.5 C 296.5,144.5 297.5,144.5 298.5,144.5C 298.5,149.5 298.5,154.5 298.5,159.5C 297.5,159.5 296.5,159.5 295.5,159.5C 295.5,154.5 295.5,149.5 295.5,144.5 Z"/></g>
<g><path style="opacity:1" fill="#313131" d="M 302.5,149.5 C 304.484,149.383 306.15,150.05 307.5,151.5C 306.167,151.833 304.833,152.167 303.5,152.5C 307.273,153.449 308.273,155.616 306.5,159C 304.191,159.756 302.191,159.256 300.5,157.5C 302.078,156.702 303.744,156.202 305.5,156C 300.717,155.138 299.717,152.972 302.5,149.5 Z"/></g>
<g><path style="opacity:1" fill="#2b2a2a" d="M 317.5,149.5 C 319.722,149.178 321.556,149.845 323,151.5C 323.497,153.81 323.663,156.143 323.5,158.5C 320.894,159.136 318.394,159.136 316,158.5C 314.948,154.707 316.448,152.707 320.5,152.5C 319.271,151.719 317.938,151.219 316.5,151C 317.056,150.617 317.389,150.117 317.5,149.5 Z"/></g>
<g><path style="opacity:1" fill="#2e2e2e" d="M 334.5,152.5 C 334.799,154.604 334.466,156.604 333.5,158.5C 332.831,156.369 332.165,154.369 331.5,152.5C 330.811,151.226 329.977,151.226 329,152.5C 328.503,154.81 328.337,157.143 328.5,159.5C 327.5,159.5 326.5,159.5 325.5,159.5C 325.5,156.167 325.5,152.833 325.5,149.5C 328.062,150.18 330.729,150.347 333.5,150C 334.252,150.671 334.586,151.504 334.5,152.5 Z"/></g>
<g><path style="opacity:1" fill="#303030" d="M 336.5,155.5 C 336.5,154.833 336.5,154.167 336.5,153.5C 337.184,149.829 339.184,148.829 342.5,150.5C 343.167,148.833 343.833,147.167 344.5,145.5C 345.493,150.12 345.827,154.786 345.5,159.5C 341.425,160.341 338.425,159.008 336.5,155.5 Z"/></g>
<g><path style="opacity:1" fill="#353434" d="M 353.5,149.5 C 355.604,149.201 357.604,149.534 359.5,150.5C 356.772,152.781 355.772,155.781 356.5,159.5C 355.5,159.5 354.5,159.5 353.5,159.5C 353.5,156.167 353.5,152.833 353.5,149.5 Z"/></g>
<g><path style="opacity:1" fill="#323131" d="M 370.5,154.5 C 368.076,154.192 365.743,154.526 363.5,155.5C 365.045,156.452 366.712,156.785 368.5,156.5C 369.773,157.077 369.773,157.743 368.5,158.5C 363.191,160.025 360.691,158.025 361,152.5C 365.207,148.177 368.374,148.843 370.5,154.5 Z"/></g>
<g><path style="opacity:1" fill="#262626" d="M 372.5,149.5 C 380.23,148.143 382.563,151.143 379.5,158.5C 377.5,149.167 375.5,149.167 373.5,158.5C 372.516,155.572 372.183,152.572 372.5,149.5 Z"/></g>
<g><path style="opacity:1" fill="#353434" d="M 392.5,154.5 C 390.076,154.192 387.743,154.526 385.5,155.5C 387.045,156.452 388.712,156.785 390.5,156.5C 391.774,157.189 391.774,158.023 390.5,159C 385.16,159.989 382.66,157.822 383,152.5C 387.259,148.19 390.425,148.857 392.5,154.5 Z"/></g>
<g><path style="opacity:1" fill="#2d2d2d" d="M 393.5,149.5 C 396.05,149.561 397.55,150.894 398,153.5C 400.311,148.131 401.978,148.465 403,154.5C 403.402,153.128 403.902,151.795 404.5,150.5C 405.365,149.417 406.365,149.251 407.5,150C 406.071,152.69 405.071,155.523 404.5,158.5C 403.5,158.5 402.5,158.5 401.5,158.5C 401.181,154.7 400.181,154.534 398.5,158C 397.668,158.688 397.002,158.521 396.5,157.5C 395.487,154.812 394.487,152.146 393.5,149.5 Z"/></g>
<g><path style="opacity:1" fill="#2d2d2d" d="M 416.5,151.5 C 417.01,154.388 416.344,156.721 414.5,158.5C 410.562,160.062 408.728,158.728 409,154.5C 414.406,153.283 414.573,152.116 409.5,151C 412.094,148.894 414.427,149.06 416.5,151.5 Z"/></g>
<g><path style="opacity:1" fill="#353434" d="M 445.5,154.5 C 443.076,154.192 440.743,154.526 438.5,155.5C 440.045,156.452 441.712,156.785 443.5,156.5C 444.773,157.077 444.773,157.743 443.5,158.5C 440.42,160.105 437.92,159.438 436,156.5C 435.167,151.333 437.333,149.167 442.5,150C 444.141,151.129 445.141,152.629 445.5,154.5 Z"/></g>
<g><path style="opacity:1" fill="#343333" d="M 461.5,152.5 C 459.975,154.036 457.975,155.036 455.5,155.5C 457.045,156.452 458.712,156.785 460.5,156.5C 461.043,156.56 461.376,156.893 461.5,157.5C 457.162,160.664 454.162,159.664 452.5,154.5C 452.833,151.5 454.5,149.833 457.5,149.5C 459.417,149.754 460.751,150.754 461.5,152.5 Z"/></g>
<g><path style="opacity:1" fill="#858383" d="M 464.5,149.5 C 463.945,153.012 464.612,156.012 466.5,158.5C 465.791,159.404 464.791,159.737 463.5,159.5C 463.187,155.958 463.521,152.625 464.5,149.5 Z"/></g>
<g><path style="opacity:1" fill="#292929" d="M 464.5,149.5 C 472.23,148.143 474.563,151.143 471.5,158.5C 471.024,155.816 470.024,153.483 468.5,151.5C 467.914,151.709 467.414,152.043 467,152.5C 466.505,154.473 466.338,156.473 466.5,158.5C 464.612,156.012 463.945,153.012 464.5,149.5 Z"/></g>
<g><path style="opacity:1" fill="#373636" d="M 484.5,154.5 C 482.076,154.192 479.743,154.526 477.5,155.5C 479.045,156.452 480.712,156.785 482.5,156.5C 483.774,157.189 483.774,158.023 482.5,159C 477.16,159.989 474.66,157.822 475,152.5C 479.259,148.19 482.425,148.857 484.5,154.5 Z"/></g>
<g><path style="opacity:1" fill="#2a2a2a" d="M 489.5,152.5 C 489.06,154.844 488.06,156.844 486.5,158.5C 486.5,155.5 486.5,152.5 486.5,149.5C 488.604,149.201 490.604,149.534 492.5,150.5C 491.398,151.176 490.398,151.842 489.5,152.5 Z"/></g>
<g><path style="opacity:1" fill="#323232" d="M 495.5,149.5 C 497.833,149.5 500.167,149.5 502.5,149.5C 502.666,153.514 502.499,157.514 502,161.5C 499.415,164.128 496.915,164.128 494.5,161.5C 496.117,161.331 497.784,160.997 499.5,160.5C 493.242,158.61 491.909,154.943 495.5,149.5 Z"/></g>
<g><path style="opacity:1" fill="#323131" d="M 504.5,150.5 C 506.707,149.13 508.374,149.797 509.5,152.5C 510.427,150.054 512.094,149.221 514.5,150C 512.266,153.636 510.432,157.469 509,161.5C 507.89,163.037 506.39,163.703 504.5,163.5C 504.5,162.5 504.5,161.5 504.5,160.5C 505.5,160.5 506.5,160.5 507.5,160.5C 507.68,156.714 506.68,153.381 504.5,150.5 Z"/></g>
<g><path style="opacity:1" fill="#b0acac" d="M 158.5,151.5 C 159.675,151.281 160.675,151.614 161.5,152.5C 160.277,153.614 158.944,153.781 157.5,153C 158.056,152.617 158.389,152.117 158.5,151.5 Z"/></g>
<g><path style="opacity:1" fill="#aca8a8" d="M 180.5,151.5 C 181.675,151.281 182.675,151.614 183.5,152.5C 182.277,153.614 180.944,153.781 179.5,153C 180.056,152.617 180.389,152.117 180.5,151.5 Z"/></g>
<g><path style="opacity:1" fill="#b8b4b4" d="M 220.5,151.5 C 221.756,151.461 222.756,151.961 223.5,153C 222.167,153.667 220.833,153.667 219.5,153C 220.056,152.617 220.389,152.117 220.5,151.5 Z"/></g>
<g><path style="opacity:1" fill="#b9b4b4" d="M 364.5,151.5 C 365.756,151.461 366.756,151.961 367.5,153C 366.167,153.667 364.833,153.667 363.5,153C 364.056,152.617 364.389,152.117 364.5,151.5 Z"/></g>
<g><path style="opacity:1" fill="#b2aeae" d="M 386.5,151.5 C 387.675,151.281 388.675,151.614 389.5,152.5C 388.277,153.614 386.944,153.781 385.5,153C 386.056,152.617 386.389,152.117 386.5,151.5 Z"/></g>
<g><path style="opacity:1" fill="#b9b5b5" d="M 439.5,151.5 C 440.756,151.461 441.756,151.961 442.5,153C 441.167,153.667 439.833,153.667 438.5,153C 439.056,152.617 439.389,152.117 439.5,151.5 Z"/></g>
<g><path style="opacity:1" fill="#bcb8b8" d="M 456.5,151.5 C 457.756,151.461 458.756,151.961 459.5,153C 458.167,153.667 456.833,153.667 455.5,153C 456.056,152.617 456.389,152.117 456.5,151.5 Z"/></g>
<g><path style="opacity:1" fill="#ece7e7" d="M 146.5,151.5 C 150.161,151.35 151.161,152.85 149.5,156C 148.552,156.483 147.552,156.649 146.5,156.5C 146.5,154.833 146.5,153.167 146.5,151.5 Z"/></g>
<g><path style="opacity:1" fill="#b0acac" d="M 236.5,151.5 C 237.675,151.281 238.675,151.614 239.5,152.5C 238.277,153.614 236.944,153.781 235.5,153C 236.056,152.617 236.389,152.117 236.5,151.5 Z"/></g>
<g><path style="opacity:1" fill="#f2ecec" d="M 340.5,151.5 C 343.389,151.999 344.056,153.499 342.5,156C 341.552,156.483 340.552,156.649 339.5,156.5C 339.366,154.708 339.699,153.042 340.5,151.5 Z"/></g>
<g><path style="opacity:1" fill="#a5a2a2" d="M 416.5,151.5 C 417.473,153.948 417.806,156.615 417.5,159.5C 416.209,159.737 415.209,159.404 414.5,158.5C 416.344,156.721 417.01,154.388 416.5,151.5 Z"/></g>
<g><path style="opacity:1" fill="#ebe5e5" d="M 422.5,151.5 C 423.5,151.5 424.5,151.5 425.5,151.5C 425.5,153.167 425.5,154.833 425.5,156.5C 421.716,156.475 420.716,154.808 422.5,151.5 Z"/></g>
<g><path style="opacity:1" fill="#b2aeae" d="M 478.5,151.5 C 479.675,151.281 480.675,151.614 481.5,152.5C 480.277,153.614 478.944,153.781 477.5,153C 478.056,152.617 478.389,152.117 478.5,151.5 Z"/></g>
<g><path style="opacity:1" fill="#eae5e5" d="M 496.5,151.5 C 500.161,151.35 501.161,152.85 499.5,156C 498.552,156.483 497.552,156.649 496.5,156.5C 496.5,154.833 496.5,153.167 496.5,151.5 Z"/></g>
<g><path style="opacity:1" fill="#7c7979" d="M 174.5,151.5 C 175.473,153.948 175.806,156.615 175.5,159.5C 174.209,159.737 173.209,159.404 172.5,158.5C 174.344,156.721 175.01,154.388 174.5,151.5 Z"/></g>
<g><path style="opacity:1" fill="#b5b1b1" d="M 331.5,152.5 C 332.165,154.369 332.831,156.369 333.5,158.5C 334.466,156.604 334.799,154.604 334.5,152.5C 335.167,152.833 335.833,153.167 336.5,153.5C 336.5,154.167 336.5,154.833 336.5,155.5C 335.566,156.568 335.232,157.901 335.5,159.5C 334.167,159.5 332.833,159.5 331.5,159.5C 331.5,157.167 331.5,154.833 331.5,152.5 Z"/></g>
<g><path style="opacity:1" fill="#827f7f" d="M 489.5,152.5 C 489.5,154.833 489.5,157.167 489.5,159.5C 488.209,159.737 487.209,159.404 486.5,158.5C 488.06,156.844 489.06,154.844 489.5,152.5 Z"/></g>
<g><path style="opacity:1" fill="#9b9797" d="M 164.5,154.5 C 163.833,155.167 163.167,155.833 162.5,156.5C 160.712,156.785 159.045,156.452 157.5,155.5C 159.743,154.526 162.076,154.192 164.5,154.5 Z"/></g>
<g><path style="opacity:1" fill="#9e9a9a" d="M 225.5,152.5 C 226.097,152.735 226.43,153.235 226.5,154C 225.944,155.011 225.278,155.844 224.5,156.5C 222.712,156.785 221.045,156.452 219.5,155.5C 221.975,155.036 223.975,154.036 225.5,152.5 Z"/></g>
<g><path style="opacity:1" fill="#9c9999" d="M 242.5,154.5 C 241.833,155.167 241.167,155.833 240.5,156.5C 238.712,156.785 237.045,156.452 235.5,155.5C 237.743,154.526 240.076,154.192 242.5,154.5 Z"/></g>
<g><path style="opacity:1" fill="#a09d9d" d="M 370.5,154.5 C 369.833,155.167 369.167,155.833 368.5,156.5C 366.712,156.785 365.045,156.452 363.5,155.5C 365.743,154.526 368.076,154.192 370.5,154.5 Z"/></g>
<g><path style="opacity:1" fill="#9d9b9b" d="M 392.5,154.5 C 391.833,155.167 391.167,155.833 390.5,156.5C 388.712,156.785 387.045,156.452 385.5,155.5C 387.743,154.526 390.076,154.192 392.5,154.5 Z"/></g>
<g><path style="opacity:1" fill="#9c9999" d="M 411.5,154.5 C 414.957,154.667 415.29,155.667 412.5,157.5C 411.614,156.675 411.281,155.675 411.5,154.5 Z"/></g>
<g><path style="opacity:1" fill="#a39f9f" d="M 445.5,154.5 C 444.833,155.167 444.167,155.833 443.5,156.5C 441.712,156.785 440.045,156.452 438.5,155.5C 440.743,154.526 443.076,154.192 445.5,154.5 Z"/></g>
<g><path style="opacity:1" fill="#9b9898" d="M 461.5,152.5 C 462.097,152.735 462.43,153.235 462.5,154C 461.944,155.011 461.278,155.844 460.5,156.5C 458.712,156.785 457.045,156.452 455.5,155.5C 457.975,155.036 459.975,154.036 461.5,152.5 Z"/></g>
<g><path style="opacity:1" fill="#a19d9d" d="M 484.5,154.5 C 483.833,155.167 483.167,155.833 482.5,156.5C 480.712,156.785 479.045,156.452 477.5,155.5C 479.743,154.526 482.076,154.192 484.5,154.5 Z"/></g>
<g><path style="opacity:1" fill="#d1cccc" d="M 288.5,154.5 C 289.376,154.369 290.043,154.702 290.5,155.5C 288.192,156.873 287.525,156.54 288.5,154.5 Z"/></g>
<g><path style="opacity:1" fill="#908e8e" d="M 198.5,154.5 C 201.957,154.667 202.29,155.667 199.5,157.5C 198.614,156.675 198.281,155.675 198.5,154.5 Z"/></g>
<g><path style="opacity:1" fill="#a19d9d" d="M 317.5,156.5 C 318.386,155.224 319.386,155.224 320.5,156.5C 319.575,157.562 318.575,157.562 317.5,156.5 Z"/></g>
</svg>
